# xmcd
#
# Track frame offsets:
#   150
#   8154
#   24581
#   39286
#   53406
#   66035
#   79230
#   98448
#   113515
#   125606
#   127981
#   146770
#   162919
#   176467
#   191856
#   208349
#   221998
#   235638
#   250994
#   267583
#
# Disc length: 3759 seconds
#
# Revision: 0
# Processed by: cddbd v1.5.1PL2 Copyright (c) Steve Scherf et al.
# Submitted via: uFREEDB ActiveX Control 1.5
#
DISCID=180ead14
DTITLE=Vários - Atacadão 2000
DYEAR=2000
DGENRE=Country
TTITLE0=Atacadão 0
TTITLE1=Orgulho Sul-Matogrossense - Canto da Terra
TTITLE2=Tipo Caprichoso - Silvio e Sidney
TTITLE3=Cavalgadas do Rio Grande - Tradição
TTITLE4=Colheita do Amor - Bailezito
TTITLE5=O Caipira e a Granfina - Calendário
TTITLE6=Rosa - Los Celestiales
TTITLE7=Filho da Rua - Silvio e Sidney
TTITLE8=Carai Mbarete - Canto da Terra
TTITLE9=Atacadão 1
TTITLE10=Do Jeito que a Gente Gosta - Tradição
TTITLE11=Filho de Fazendeiro - Bailezito
TTITLE12=Uma Noite Sem Você - Canto da Terra
TTITLE13=Velha Tuca - Zingaro
TTITLE14=Amargo Drink - Zingaro
TTITLE15=Limpa Banco - Canto da Terra
TTITLE16=Filha do Meu Pantanal - Calendário
TTITLE17=Baile do Calendário - Calendário
TTITLE18=Vaneira do Canto - Canto da Terra
TTITLE19=Atacadão
EXTD=
EXTT0=
EXTT1=
EXTT2=
EXTT3=
EXTT4=
EXTT5=
EXTT6=
EXTT7=
EXTT8=
EXTT9=
EXTT10=
EXTT11=
EXTT12=
EXTT13=
EXTT14=
EXTT15=
EXTT16=
EXTT17=
EXTT18=
EXTT19=
PLAYORDER=
